<svg width="1206" height="820" viewBox="0 0 1206 820" fill="none" xmlns="http://www.w3.org/2000/svg">
<rect y="9" width="1200" height="810" fill="#F9F1E4"/>
<path d="M3 94.5H1200" stroke="#9B6543"/>
<path d="M0 353H1197" stroke="#9B6543"/>
<path d="M0 220H1197" stroke="#9B6543"/>
<path d="M3 478H1200" stroke="#9B6543"/>
<path d="M108 9L108.99 819" stroke="#9B6543"/>
<path d="M256 9L256.99 819" stroke="#9B6543"/>
<path d="M404 9L404.99 819" stroke="#9B6543"/>
<path d="M572 9L572.99 819" stroke="#9B6543"/>
<path d="M740 9L740.99 819" stroke="#9B6543"/>
<path d="M908 9L908.99 819" stroke="#9B6543"/>
<path d="M1076 9L1076.99 819" stroke="#9B6543"/>
<path d="M110.5 304C94.5 268 35.5 245.667 8 239V525.5C28.3219 516.826 58.7901 501.519 84.5 483.658C106.319 468.5 128 441 132.5 425.5C145.75 379.861 130.5 349 110.5 304Z" fill="#907766" stroke="#907766"/>
<path d="M0 603.5H1197" stroke="#9B6543"/>
<path d="M3 725H1200" stroke="#9B6543"/>
<path d="M7.5 819V603C43.1809 643.489 131.612 731.279 199.888 758.52C268.164 785.761 460.744 810.191 548.5 819H7.5Z" fill="#584339" stroke="#584339"/>
<path d="M776 713.749C776 698.149 789 652.249 795.5 631.249C799.333 616.083 812.8 581.65 836 565.25C865 544.75 901.5 541.749 954.5 527.249C1007.5 512.749 1052 572.249 1066.5 594.249C1081 616.249 1080 640.249 1057.5 690.749C1035 741.249 938 759.749 901.5 771.249C865 782.749 807 761.749 795.5 753.749C784 745.749 776 733.249 776 713.749Z" fill="#BDA494" stroke="#BDA494"/>
<path d="M1025 326.493V236L1197 274.507V365L1025 326.493Z" fill="#584339" stroke="#584339"/>
<path d="M1047.5 459.799V366.5L1201.5 406.201V499.5L1047.5 459.799Z" fill="#584339" stroke="#584339"/>
<path d="M1048 612.299V519L1202 558.701V652L1048 612.299Z" fill="#584339" stroke="#584339"/>
<ellipse cx="690" cy="68.5" rx="51" ry="50.5" fill="#BDA494"/>
<path d="M106.408 152.5C88.0079 170.5 91.0746 199 94.9079 211C102.075 207.667 118.008 199.7 124.408 194.5C132.408 188 151.908 162.5 167.908 146C180.708 132.8 193.908 98.5 198.908 83L161.408 104C150.741 112.667 124.808 134.5 106.408 152.5Z" fill="#584339" stroke="#584339"/>
<path d="M273.279 76.6827C257.278 86.4448 255.866 106.419 257.16 115.185C262.916 113.905 275.785 110.677 281.214 108.009C287.999 104.674 305.788 89.9231 319.811 80.8529C331.03 73.5968 345.278 51.9276 351 42L320.421 51.1399C311.374 55.5866 289.28 66.9206 273.279 76.6827Z" fill="#584339" stroke="#584339"/>
<path d="M411.972 49.3425C394.65 56.5017 390.154 76.0141 390.071 84.8753C395.956 84.5042 409.17 83.3137 414.947 81.5208C422.167 79.2798 442.031 67.47 457.293 60.6872C469.502 55.2611 486.942 36.067 494.136 27.1483L462.508 31.4292C452.881 34.4173 429.295 42.1832 411.972 49.3425Z" fill="#584339" stroke="#584339"/>
<path d="M283.05 164.926C255.423 166.195 238.45 143.034 233.418 131.295C241.659 128.121 260.364 121.471 269.246 120.256C280.35 118.739 314.03 122.074 338.634 121.588C358.318 121.2 392.788 135.871 407.562 143.256L361.999 157.269C347.195 159.293 310.678 163.657 283.05 164.926Z" fill="#584339" stroke="#584339"/>
<path d="M418.453 121.004C396.385 116.234 389.3 95.0434 388.515 85.0447C395.854 84.336 412.359 83.1484 419.672 84.0673C428.814 85.2159 454.395 94.755 473.874 99.495C489.457 103.287 512.595 121.636 522.217 130.337L482.602 131.561C470.414 130.03 440.52 125.774 418.453 121.004Z" fill="#584339" stroke="#584339"/>
<path d="M92.5 215C113.333 195.833 164.8 153.4 204 137C243.2 120.6 360 92.1667 413.5 80" stroke="#584339" stroke-width="7"/>
<path d="M988.395 261.188C973.143 283.9 938.428 251.725 922.977 232.798C916.622 227.841 904.884 208.734 908.772 171.962C912.66 135.19 926.84 100.31 933.444 87.467C941.817 55.5617 976.807 19.1951 993.255 5H1200.35C1201.59 80.9327 1203.34 228.337 1200.35 210.491C1196.61 188.185 1143.53 153.035 1108.02 147.627C1072.5 142.219 1056.8 163.174 1028.77 184.805C1000.73 206.436 1007.46 232.798 988.395 261.188Z" fill="#907766" stroke="#907766" stroke-width="7"/>
<path d="M74.4138 570.476C71.7471 469.976 71.0138 257.376 89.4138 210.976C103.58 205.309 145.714 190.076 200.914 174.476C269.914 154.976 379.914 160.976 581.414 174.476C782.914 187.976 802.414 178.476 863.914 174.476C925.414 170.476 1065.91 172.476 1106.41 193.976C1146.91 215.476 1169.41 364.976 1169.41 453.476C1169.41 541.976 1144.41 581.976 1121.41 639.476C1098.41 696.976 931.414 639.476 790.914 652.976C650.414 666.476 108.914 651.476 89.4138 639.476C73.8137 629.876 72.9138 589.476 74.4138 570.476Z" fill="#FCF7F3" stroke="#FCF7F3"/>
</svg>
